<svg xmlns="http://www.w3.org/2000/svg" xmlns:xlink="http://www.w3.org/1999/xlink" width="1000" zoomAndPan="magnify" viewBox="0 0 750 749.999995" height="1000" preserveAspectRatio="xMidYMid meet" version="1.0"><defs><clipPath id="01ad1413b1"><path d="M 150 150 L 284 150 L 284 284 L 150 284 Z M 150 150 " clip-rule="nonzero"/></clipPath><clipPath id="393d4e2d0a"><path d="M 150 466 L 284 466 L 284 600 L 150 600 Z M 150 466 " clip-rule="nonzero"/></clipPath><clipPath id="6247ee285c"><path d="M 466 150 L 600 150 L 600 284 L 466 284 Z M 466 150 " clip-rule="nonzero"/></clipPath><clipPath id="a77c8f8a70"><path d="M 466 466 L 600 466 L 600 600 L 466 600 Z M 466 466 " clip-rule="nonzero"/></clipPath></defs><g clip-path="url(#01ad1413b1)"><path fill="#000000" d="M 158.722656 283.601562 L 149.984375 283.601562 L 149.984375 149.984375 L 283.601562 149.984375 L 283.601562 158.722656 L 158.722656 158.722656 Z M 158.722656 283.601562 " fill-opacity="1" fill-rule="nonzero"/></g><g clip-path="url(#393d4e2d0a)"><path fill="#000000" d="M 283.601562 600.015625 L 149.984375 600.015625 L 149.984375 466.398438 L 158.722656 466.398438 L 158.722656 591.277344 L 283.601562 591.277344 Z M 283.601562 600.015625 " fill-opacity="1" fill-rule="nonzero"/></g><g clip-path="url(#6247ee285c)"><path fill="#000000" d="M 600.015625 283.601562 L 591.277344 283.601562 L 591.277344 158.722656 L 466.398438 158.722656 L 466.398438 149.984375 L 600.015625 149.984375 Z M 600.015625 283.601562 " fill-opacity="1" fill-rule="nonzero"/></g><g clip-path="url(#a77c8f8a70)"><path fill="#000000" d="M 600.015625 600.015625 L 466.398438 600.015625 L 466.398438 591.277344 L 591.277344 591.277344 L 591.277344 466.398438 L 600.015625 466.398438 Z M 600.015625 600.015625 " fill-opacity="1" fill-rule="nonzero"/></g><path fill="#000000" d="M 280.953125 364.472656 C 280.953125 358.980469 280.953125 353.503906 280.953125 347.097656 C 274.996094 347.097656 269.652344 347.097656 263.824219 347.097656 C 263.824219 341.066406 263.824219 335.941406 263.824219 329.898438 C 286.367188 329.898438 309.160156 329.898438 332.867188 329.898438 C 332.867188 317.882812 332.867188 306.726562 332.867188 294.566406 C 339.453125 294.566406 345.144531 294.566406 350.839844 294.566406 L 350.605469 294.304688 C 350.605469 311.605469 350.605469 328.894531 350.605469 347.082031 C 344.445312 347.082031 339.101562 347.082031 333.832031 347.082031 C 333.832031 364.9375 333.832031 381.875 333.832031 399.144531 C 339.875 399.144531 345.347656 399.144531 350.824219 399.144531 C 350.824219 404.824219 350.824219 410.492188 350.824219 416.199219 C 357.085938 416.199219 362.386719 416.199219 367.585938 416.199219 C 367.585938 410.300781 367.585938 405 367.585938 399.394531 C 361.5 399.394531 356.039062 399.394531 350.578125 399.394531 C 350.578125 393.683594 350.578125 387.976562 350.578125 381.394531 C 357.234375 381.394531 362.59375 381.394531 368.519531 381.394531 C 368.519531 375.320312 368.519531 370.164062 368.519531 364.136719 C 374.476562 364.136719 379.835938 364.136719 385.804688 364.136719 C 385.804688 357.726562 385.804688 352.238281 385.804688 346.734375 L 385.574219 346.996094 C 391.472656 346.90625 397.367188 346.804688 403.265625 346.71875 C 403.265625 358.207031 403.265625 369.683594 403.265625 381.234375 C 409.5 381.234375 414.816406 381.234375 420.042969 381.234375 C 420.042969 369.523438 420.042969 358.398438 420.042969 346.964844 C 413.972656 346.964844 408.496094 346.964844 403.019531 346.964844 C 403.019531 341.492188 403.019531 336.015625 403.019531 329.972656 C 420.582031 329.972656 437.519531 329.972656 455.753906 329.972656 C 455.753906 335.59375 455.753906 341.273438 455.753906 346.964844 C 450.074219 346.964844 444.40625 346.964844 438.699219 346.964844 C 438.699219 353.226562 438.699219 358.527344 438.699219 363.726562 C 444.597656 363.726562 449.898438 363.726562 455.503906 363.726562 C 455.503906 357.640625 455.503906 352.179688 455.503906 346.71875 C 460.980469 346.71875 466.472656 346.71875 472.847656 346.71875 C 472.847656 358.5 472.847656 369.667969 472.847656 381.421875 C 479.066406 381.699219 484.425781 381.933594 490.152344 382.179688 C 490.152344 387.785156 490.152344 392.914062 490.152344 398.957031 C 484.863281 398.957031 479.503906 398.957031 472.953125 398.957031 C 472.953125 411.363281 472.953125 422.867188 472.953125 434.375 L 473.214844 434.140625 C 461.707031 434.140625 450.203125 434.140625 437.8125 434.140625 C 437.8125 427.847656 437.8125 422.503906 437.8125 416.285156 C 431.5625 416.285156 426.234375 416.285156 420.320312 416.285156 C 420.320312 410.242188 420.320312 405.117188 420.320312 399.886719 C 414.363281 399.886719 409.035156 399.886719 402.800781 399.886719 C 402.800781 405.800781 402.800781 411.132812 402.800781 417.042969 C 396.757812 417.042969 391.632812 417.042969 385.617188 417.042969 C 385.617188 428.796875 385.617188 439.953125 385.617188 451.996094 C 379.382812 451.996094 374.039062 451.996094 368.113281 451.996094 C 368.113281 458.386719 368.113281 463.863281 368.113281 469.339844 L 368.359375 469.09375 C 362.652344 469.09375 356.941406 469.09375 350.636719 469.09375 C 350.636719 475.835938 350.636719 481.324219 350.636719 486.816406 L 350.867188 486.554688 C 345.394531 486.554688 339.917969 486.554688 333.597656 486.554688 C 333.597656 463.472656 333.597656 440.722656 333.597656 417.085938 C 315.84375 417.085938 298.894531 417.085938 280.980469 417.085938 C 280.980469 410.5625 280.980469 404.867188 280.980469 399.1875 L 280.71875 399.421875 C 292.179688 399.421875 303.65625 399.421875 315.246094 399.421875 C 315.246094 393 315.246094 387.699219 315.246094 381.507812 C 309.394531 381.507812 304.0625 381.507812 298.164062 381.507812 C 298.164062 375.175781 298.164062 369.714844 298.164062 364.253906 C 303.84375 364.253906 309.507812 364.253906 315.21875 364.253906 C 315.21875 357.988281 315.21875 352.6875 315.21875 347.488281 C 309.320312 347.488281 304.019531 347.488281 298.414062 347.488281 C 298.414062 353.578125 298.414062 359.039062 298.414062 364.5 C 292.515625 364.414062 286.617188 364.3125 280.703125 364.222656 Z M 438.625 382.003906 C 438.625 388.035156 438.625 393.347656 438.625 398.722656 C 444.480469 398.722656 449.796875 398.722656 454.921875 398.722656 C 454.921875 392.78125 454.921875 387.464844 454.921875 382.003906 C 449.34375 382.003906 444.4375 382.003906 438.625 382.003906 Z M 438.625 382.003906 " fill-opacity="1" fill-rule="nonzero"/><path fill="#000000" d="M 350.5625 504.277344 C 350.652344 498.378906 350.738281 492.464844 350.839844 486.566406 C 350.839844 486.566406 350.605469 486.828125 350.605469 486.828125 C 356.316406 486.828125 362.023438 486.828125 368.332031 486.828125 C 368.332031 480.085938 368.332031 474.597656 368.332031 469.105469 L 368.082031 469.355469 C 373.761719 469.355469 379.441406 469.355469 385.980469 469.355469 C 385.980469 475.632812 385.980469 480.945312 385.980469 486.566406 C 392.34375 486.566406 397.804688 486.566406 403.265625 486.566406 C 403.265625 498.074219 403.265625 509.578125 403.265625 521.039062 C 409.542969 521.039062 414.859375 521.039062 420.507812 521.039062 C 420.507812 509.140625 420.507812 497.855469 420.507812 486.566406 C 426.40625 486.566406 432.320312 486.566406 438.21875 486.566406 C 438.21875 492.277344 438.21875 497.984375 438.21875 504.304688 C 444.714844 504.304688 450.203125 504.304688 455.695312 504.304688 L 455.433594 504.074219 C 455.433594 509.5625 455.433594 515.054688 455.433594 521.476562 C 449.707031 521.476562 444.363281 521.476562 438.554688 521.476562 C 438.554688 527.535156 438.554688 532.675781 438.554688 538.484375 C 449.546875 538.484375 460.71875 538.484375 472.835938 538.484375 C 472.835938 533.273438 472.835938 527.925781 472.835938 522.132812 C 478.894531 522.132812 484.035156 522.132812 490.105469 522.132812 C 490.105469 527.300781 490.105469 532.660156 490.105469 538.953125 C 502.195312 538.953125 513.378906 538.953125 525 538.953125 C 525 545.007812 525 550.152344 525 555.945312 C 490.703125 555.945312 456.246094 555.945312 420.832031 555.945312 C 420.832031 550.761719 420.832031 545.417969 420.832031 539.605469 C 414.773438 539.605469 409.644531 539.605469 403.558594 539.605469 C 403.558594 544.746094 403.558594 550.09375 403.558594 556.019531 C 397.296875 556.019531 391.964844 556.019531 385.980469 556.019531 C 385.980469 550.777344 385.980469 545.636719 385.980469 539.8125 C 380.039062 539.8125 374.695312 539.8125 368.402344 539.8125 C 368.402344 544.9375 368.402344 550.3125 368.402344 556.121094 C 356.519531 556.121094 345.566406 556.121094 333.902344 556.121094 C 333.902344 539.328125 333.902344 522.347656 333.902344 504.027344 C 339.378906 504.027344 345.085938 504.027344 350.78125 504.027344 C 350.78125 509.707031 350.78125 515.386719 350.78125 521.082031 C 362.898438 521.082031 374.007812 521.082031 384.992188 521.082031 C 384.992188 515.183594 384.992188 509.867188 384.992188 504.277344 C 373.105469 504.277344 361.835938 504.277344 350.5625 504.277344 Z M 350.5625 504.277344 " fill-opacity="1" fill-rule="nonzero"/><path fill="#000000" d="M 194.039062 189.976562 C 234.726562 189.976562 274.792969 189.976562 315.304688 189.976562 C 315.304688 230.417969 315.304688 270.480469 315.304688 311.226562 C 275.183594 311.226562 234.917969 311.226562 194.039062 311.226562 C 194.039062 271.195312 194.039062 230.925781 194.039062 189.976562 Z M 211.527344 207.4375 C 211.527344 236.765625 211.527344 265.367188 211.527344 293.738281 C 240.773438 293.738281 269.386719 293.738281 297.828125 293.738281 C 297.828125 264.625 297.828125 236.226562 297.828125 207.4375 C 268.953125 207.4375 240.539062 207.4375 211.527344 207.4375 Z M 211.527344 207.4375 " fill-opacity="1" fill-rule="nonzero"/><path fill="#000000" d="M 559.835938 311.535156 C 519.132812 311.535156 479.066406 311.535156 438.566406 311.535156 C 438.566406 271.078125 438.566406 231.027344 438.566406 190.28125 C 478.6875 190.28125 518.957031 190.28125 559.835938 190.28125 C 559.835938 230.332031 559.835938 270.582031 559.835938 311.535156 Z M 455.972656 293.984375 C 485.375 293.984375 513.785156 293.984375 542.433594 293.984375 C 542.433594 264.902344 542.433594 236.300781 542.433594 207.667969 C 513.277344 207.667969 484.660156 207.667969 455.972656 207.667969 C 455.972656 236.695312 455.972656 265.105469 455.972656 293.984375 Z M 455.972656 293.984375 " fill-opacity="1" fill-rule="nonzero"/><path fill="#000000" d="M 194.054688 434.652344 C 234.726562 434.652344 274.792969 434.652344 315.304688 434.652344 C 315.304688 475.09375 315.304688 515.15625 315.304688 555.902344 C 275.214844 555.902344 234.945312 555.902344 194.054688 555.902344 C 194.054688 515.882812 194.054688 475.617188 194.054688 434.652344 Z M 297.773438 538.6875 C 297.773438 509.636719 297.773438 481.035156 297.773438 452.332031 C 268.644531 452.332031 240.027344 452.332031 211.558594 452.332031 C 211.558594 481.542969 211.558594 510.144531 211.558594 538.6875 C 240.640625 538.6875 269.054688 538.6875 297.773438 538.6875 Z M 297.773438 538.6875 " fill-opacity="1" fill-rule="nonzero"/><path fill="#000000" d="M 490.675781 434.386719 C 490.675781 428.898438 490.675781 423.421875 490.675781 417 C 496.382812 417 501.726562 417 507.539062 417 C 507.539062 399.101562 507.539062 382.121094 507.539062 364.527344 C 502.019531 364.527344 496.878906 364.527344 491.140625 364.527344 C 491.140625 358.585938 491.140625 353.257812 491.140625 346.980469 C 496.515625 346.980469 501.875 346.980469 507.800781 346.980469 C 507.800781 340.9375 507.800781 335.796875 507.800781 330.042969 C 513.742188 330.042969 519.074219 330.042969 525.347656 330.042969 C 525.347656 335.332031 525.347656 340.703125 525.347656 346.644531 C 537.21875 346.644531 548.167969 346.644531 559.777344 346.644531 C 559.777344 370.046875 559.777344 392.839844 559.777344 416.941406 C 554.257812 416.941406 548.5625 416.941406 542.867188 416.941406 C 542.867188 405.453125 542.867188 393.976562 542.867188 382.425781 C 536.636719 382.425781 531.320312 382.425781 526.09375 382.425781 C 526.09375 394.136719 526.09375 405.261719 526.09375 416.695312 C 532.164062 416.695312 537.640625 416.695312 543.117188 416.695312 C 543.015625 422.59375 542.925781 428.492188 542.824219 434.386719 L 543.085938 434.15625 C 537.40625 434.15625 531.726562 434.15625 525.1875 434.15625 C 525.1875 440.664062 525.1875 445.996094 525.1875 451.894531 C 518.824219 451.894531 513.363281 451.894531 507.902344 451.894531 C 507.902344 446.183594 507.902344 440.476562 507.902344 434.15625 C 501.40625 434.15625 495.917969 434.15625 490.425781 434.15625 Z M 490.675781 434.386719 " fill-opacity="1" fill-rule="nonzero"/><path fill="#000000" d="M 350.839844 294.582031 C 350.839844 283.265625 350.839844 271.964844 350.839844 260.066406 C 356.578125 260.066406 361.90625 260.066406 367.894531 260.066406 C 367.894531 265.339844 367.894531 270.464844 367.894531 276.292969 C 373.835938 276.292969 379.179688 276.292969 385.472656 276.292969 C 385.472656 271.136719 385.472656 265.777344 385.472656 259.804688 C 391.527344 259.804688 396.65625 259.804688 402.742188 259.804688 C 402.742188 253.863281 402.742188 248.519531 402.742188 242.59375 C 409.003906 242.59375 414.335938 242.59375 420.160156 242.59375 C 420.160156 253.660156 420.160156 264.613281 420.160156 276.523438 C 415.003906 276.523438 409.660156 276.523438 403.003906 276.523438 C 403.003906 283.136719 403.003906 288.84375 403.003906 294.539062 L 403.253906 294.292969 C 397.761719 294.292969 392.273438 294.292969 385.558594 294.292969 C 385.558594 312.304688 385.558594 329.652344 385.558594 346.996094 C 385.558594 346.996094 385.792969 346.734375 385.792969 346.734375 C 380.113281 346.734375 374.417969 346.734375 367.894531 346.734375 C 367.894531 328.792969 367.894531 311.824219 367.894531 294.304688 C 361.542969 294.304688 356.066406 294.304688 350.59375 294.304688 Z M 350.839844 294.582031 " fill-opacity="1" fill-rule="nonzero"/><path fill="#000000" d="M 228.523438 364.457031 C 228.523438 358.980469 228.523438 353.492188 228.523438 347.097656 C 216.726562 347.097656 205.558594 347.097656 193.921875 347.097656 C 193.921875 340.863281 193.921875 335.546875 193.921875 329.8125 C 211.035156 329.8125 227.796875 329.8125 245.199219 329.8125 C 245.199219 340.90625 245.199219 352.046875 245.199219 364.207031 C 239.652344 364.207031 233.972656 364.207031 228.277344 364.207031 Z M 228.523438 364.457031 " fill-opacity="1" fill-rule="nonzero"/><path fill="#000000" d="M 542.839844 434.386719 C 548.316406 434.386719 553.804688 434.386719 559.863281 434.386719 C 559.863281 451.675781 559.863281 468.625 559.863281 486.566406 C 554.226562 486.566406 548.546875 486.566406 542.855469 486.566406 L 543.085938 486.828125 C 543.085938 469.265625 543.085938 451.71875 543.085938 434.15625 Z M 542.839844 434.386719 " fill-opacity="1" fill-rule="nonzero"/><path fill="#000000" d="M 228.277344 364.207031 C 228.277344 375.507812 228.277344 386.8125 228.277344 398.707031 C 222.582031 398.707031 217.265625 398.707031 210.992188 398.707031 C 210.992188 393.347656 210.992188 388.003906 210.992188 382.0625 C 204.945312 382.0625 199.820312 382.0625 194.054688 382.0625 C 194.054688 376.136719 194.054688 370.804688 194.054688 364.457031 C 205.484375 364.457031 217.003906 364.457031 228.507812 364.457031 C 228.523438 364.457031 228.277344 364.207031 228.277344 364.207031 Z M 228.277344 364.207031 " fill-opacity="1" fill-rule="nonzero"/><path fill="#000000" d="M 403.515625 224.097656 C 403.515625 212.636719 403.515625 201.714844 403.515625 190.179688 C 408.960938 190.179688 414.292969 190.179688 420.132812 190.179688 C 420.132812 201.378906 420.132812 212.519531 420.132812 224.097656 C 414.726562 224.097656 409.601562 224.097656 403.515625 224.097656 Z M 403.515625 224.097656 " fill-opacity="1" fill-rule="nonzero"/><path fill="#000000" d="M 280.953125 399.1875 C 275.054688 399.175781 269.140625 399.160156 263.242188 399.160156 L 263.492188 399.40625 C 263.492188 388.105469 263.492188 376.804688 263.492188 364.472656 C 269.5625 364.472656 275.257812 364.472656 280.953125 364.472656 C 280.953125 364.472656 280.6875 364.238281 280.6875 364.238281 C 280.6875 375.976562 280.6875 387.699219 280.6875 399.4375 Z M 280.953125 399.1875 " fill-opacity="1" fill-rule="nonzero"/><path fill="#000000" d="M 385.355469 225.246094 C 385.355469 230.679688 385.355469 235.792969 385.355469 241.457031 C 379.804688 241.457031 374.492188 241.457031 368.679688 241.457031 C 368.679688 236.199219 368.679688 231.085938 368.679688 225.246094 C 373.761719 225.246094 379.078125 225.246094 385.355469 225.246094 Z M 385.355469 225.246094 " fill-opacity="1" fill-rule="nonzero"/><path fill="#000000" d="M 403.003906 294.554688 C 408.464844 294.554688 413.925781 294.554688 420.015625 294.554688 C 420.015625 300.144531 420.015625 305.445312 420.015625 311.359375 C 414.832031 311.359375 409.515625 311.359375 403.253906 311.359375 C 403.253906 305.664062 403.253906 299.984375 403.253906 294.304688 C 403.253906 294.304688 403.003906 294.554688 403.003906 294.554688 Z M 403.003906 294.554688 " fill-opacity="1" fill-rule="nonzero"/><path fill="#000000" d="M 472.921875 434.386719 C 478.835938 434.386719 484.746094 434.386719 490.675781 434.386719 C 490.675781 434.386719 490.414062 434.15625 490.414062 434.15625 C 490.5 440.066406 490.585938 445.964844 490.675781 451.878906 C 484.761719 451.878906 478.847656 451.878906 472.921875 451.878906 C 473.007812 445.964844 473.097656 440.066406 473.183594 434.15625 Z M 472.921875 434.386719 " fill-opacity="1" fill-rule="nonzero"/><path fill="#000000" d="M 263.226562 399.160156 C 263.226562 404.621094 263.226562 410.082031 263.226562 416.167969 C 257.636719 416.167969 252.335938 416.167969 246.421875 416.167969 C 246.421875 410.984375 246.421875 405.667969 246.421875 399.40625 C 252.117188 399.40625 257.796875 399.40625 263.476562 399.40625 C 263.476562 399.40625 263.226562 399.160156 263.226562 399.160156 Z M 263.226562 399.160156 " fill-opacity="1" fill-rule="nonzero"/><path fill="#000000" d="M 490.660156 486.566406 C 484.761719 486.566406 478.847656 486.566406 472.953125 486.566406 L 473.183594 486.828125 C 473.113281 480.917969 473.023438 475.003906 472.953125 469.09375 C 478.847656 469.09375 484.761719 469.09375 490.660156 469.09375 C 490.585938 475.003906 490.5 480.917969 490.425781 486.828125 Z M 490.660156 486.566406 " fill-opacity="1" fill-rule="nonzero"/><path fill="#000000" d="M 384.960938 206.882812 C 379.339844 206.882812 374.433594 206.882812 368.855469 206.882812 C 368.855469 201.40625 368.855469 196.09375 368.855469 190.164062 C 373.996094 190.164062 379.3125 190.164062 384.960938 190.164062 C 384.960938 195.773438 384.960938 201.304688 384.960938 206.882812 Z M 384.960938 206.882812 " fill-opacity="1" fill-rule="nonzero"/><path fill="#000000" d="M 472.953125 486.566406 C 472.953125 492.058594 472.953125 497.546875 472.953125 504.058594 C 466.878906 504.058594 461.167969 504.058594 455.460938 504.058594 C 455.460938 504.058594 455.722656 504.292969 455.722656 504.292969 C 455.636719 498.378906 455.546875 492.480469 455.460938 486.566406 C 461.375 486.640625 467.285156 486.726562 473.199219 486.800781 Z M 472.953125 486.566406 " fill-opacity="1" fill-rule="nonzero"/><path fill="#000000" d="M 508.136719 504.042969 C 502.644531 504.042969 497.15625 504.042969 490.660156 504.042969 C 490.660156 497.984375 490.660156 492.277344 490.660156 486.566406 C 490.660156 486.566406 490.425781 486.828125 490.425781 486.828125 C 496.339844 486.742188 502.238281 486.65625 508.152344 486.566406 C 508.078125 492.480469 507.992188 498.394531 507.917969 504.304688 Z M 508.136719 504.042969 " fill-opacity="1" fill-rule="nonzero"/><path fill="#000000" d="M 542.855469 486.566406 C 542.839844 492.464844 542.824219 498.378906 542.824219 504.277344 L 543.074219 504.027344 C 537.175781 504.027344 531.277344 504.027344 525.378906 504.042969 L 525.613281 504.304688 C 525.539062 498.394531 525.453125 492.480469 525.378906 486.566406 C 531.292969 486.65625 537.1875 486.742188 543.101562 486.828125 Z M 542.855469 486.566406 " fill-opacity="1" fill-rule="nonzero"/><path fill="#000000" d="M 333.40625 241.5 C 333.40625 235.675781 333.40625 230.765625 333.40625 225.203125 C 338.882812 225.203125 344.199219 225.203125 350.125 225.203125 C 350.125 230.332031 350.125 235.660156 350.125 241.5 C 344.765625 241.5 339.4375 241.5 333.40625 241.5 Z M 333.40625 241.5 " fill-opacity="1" fill-rule="nonzero"/><path fill="#000000" d="M 525.378906 504.042969 C 525.378906 509.519531 525.378906 514.980469 525.378906 521.054688 C 519.742188 521.054688 514.425781 521.054688 508.136719 521.054688 C 508.136719 515.417969 508.136719 509.722656 508.136719 504.042969 C 508.136719 504.042969 507.902344 504.304688 507.902344 504.304688 C 513.816406 504.304688 519.714844 504.304688 525.625 504.304688 Z M 525.378906 504.042969 " fill-opacity="1" fill-rule="nonzero"/><path fill="#000000" d="M 542.824219 504.277344 C 548.285156 504.277344 553.746094 504.277344 559.835938 504.277344 C 559.835938 509.867188 559.835938 515.183594 559.835938 521.082031 C 554.652344 521.082031 549.335938 521.082031 543.074219 521.082031 C 543.074219 515.386719 543.074219 509.707031 543.074219 504.027344 C 543.074219 504.027344 542.824219 504.277344 542.824219 504.277344 Z M 542.824219 504.277344 " fill-opacity="1" fill-rule="nonzero"/><path fill="#000000" d="M 560.054688 539.722656 C 560.054688 545.519531 560.054688 550.632812 560.054688 556.179688 C 554.546875 556.179688 549.4375 556.179688 543.640625 556.179688 C 543.640625 550.980469 543.640625 545.664062 543.640625 539.722656 C 548.765625 539.722656 554.082031 539.722656 560.054688 539.722656 Z M 560.054688 539.722656 " fill-opacity="1" fill-rule="nonzero"/><path fill="#000000" d="M 473.183594 469.339844 C 467.695312 469.339844 462.203125 469.339844 455.707031 469.339844 C 455.707031 475.398438 455.707031 481.105469 455.707031 486.816406 C 449.796875 486.816406 443.898438 486.816406 437.984375 486.816406 C 437.984375 475.515625 437.984375 464.199219 437.984375 451.617188 C 450.144531 451.617188 461.664062 451.617188 473.183594 451.617188 C 473.183594 457.527344 473.183594 463.425781 473.183594 469.339844 Z M 473.183594 469.339844 " fill-opacity="1" fill-rule="nonzero"/><path fill="#000000" d="M 420.261719 434.707031 C 420.261719 440.316406 420.261719 445.425781 420.261719 451.152344 C 414.84375 451.152344 409.527344 451.152344 403.675781 451.152344 C 403.675781 445.804688 403.675781 440.492188 403.675781 434.707031 C 409.035156 434.707031 414.144531 434.707031 420.261719 434.707031 Z M 420.261719 434.707031 " fill-opacity="1" fill-rule="nonzero"/><path fill="#000000" d="M 420.757812 486.816406 C 414.84375 486.816406 408.945312 486.816406 403.035156 486.816406 C 403.035156 481.355469 403.035156 475.878906 403.035156 469.820312 C 408.902344 469.820312 414.21875 469.820312 420.757812 469.820312 C 420.757812 475.457031 420.757812 481.136719 420.757812 486.816406 Z M 420.757812 486.816406 " fill-opacity="1" fill-rule="nonzero"/><path fill="#000000" d="M 229.003906 224.925781 C 246.378906 224.925781 263.125 224.925781 280.355469 224.925781 C 280.355469 242.054688 280.355469 258.816406 280.355469 276.277344 C 263.578125 276.277344 246.613281 276.277344 229.003906 276.277344 C 229.003906 259.558594 229.003906 242.59375 229.003906 224.925781 Z M 229.003906 224.925781 " fill-opacity="1" fill-rule="nonzero"/><path fill="#000000" d="M 473.664062 224.941406 C 491.097656 224.941406 507.859375 224.941406 525.058594 224.941406 C 525.058594 242.097656 525.058594 258.859375 525.058594 276.292969 C 508.207031 276.292969 491.242188 276.292969 473.664062 276.292969 C 473.664062 259.515625 473.664062 242.546875 473.664062 224.941406 Z M 473.664062 224.941406 " fill-opacity="1" fill-rule="nonzero"/><path fill="#000000" d="M 229.0625 469.542969 C 246.234375 469.542969 262.980469 469.542969 280.265625 469.542969 C 280.265625 486.816406 280.265625 503.78125 280.265625 521.199219 C 263.257812 521.199219 246.507812 521.199219 229.0625 521.199219 C 229.0625 504.378906 229.0625 487.414062 229.0625 469.542969 Z M 229.0625 469.542969 " fill-opacity="1" fill-rule="nonzero"/><path fill="#000000" d="M 508.136719 469.339844 C 502.222656 469.339844 496.324219 469.339844 490.414062 469.339844 C 490.414062 463.425781 490.414062 457.527344 490.414062 451.617188 C 496.324219 451.617188 502.222656 451.617188 508.136719 451.617188 C 508.136719 457.527344 508.136719 463.425781 508.136719 469.339844 Z M 508.136719 469.339844 " fill-opacity="1" fill-rule="nonzero"/><path fill="#000000" d="M 525.613281 486.816406 C 519.699219 486.816406 513.800781 486.816406 507.886719 486.816406 C 507.886719 480.902344 507.886719 475.003906 507.886719 469.09375 C 513.378906 469.09375 518.867188 469.09375 525.613281 469.09375 C 525.613281 475.398438 525.613281 481.105469 525.613281 486.816406 Z M 525.613281 486.816406 " fill-opacity="1" fill-rule="nonzero"/></svg>