<svg xmlns="http://www.w3.org/2000/svg" xmlns:xlink="http://www.w3.org/1999/xlink" width="1000" zoomAndPan="magnify" viewBox="0 0 750 749.999995" height="1000" preserveAspectRatio="xMidYMid meet" version="1.0"><defs><clipPath id="9c7551d69f"><path d="M 71.046875 158.8125 L 679.296875 158.8125 L 679.296875 590.8125 L 71.046875 590.8125 Z M 71.046875 158.8125 " clip-rule="nonzero"/></clipPath></defs><rect x="-75" width="900" fill="#ffffff" y="-74.999999" height="899.999994" fill-opacity="1"/><rect x="-75" width="900" fill="#ffffff" y="-74.999999" height="899.999994" fill-opacity="1"/><g clip-path="url(#9c7551d69f)"><path fill="#c2a813" d="M 71.046875 158.988281 L 679.230469 158.988281 L 679.230469 590.648438 L 71.046875 590.648438 Z M 71.046875 158.988281 " fill-opacity="1" fill-rule="evenodd"/></g><path fill="#f9d923" d="M 137.660156 186.734375 L 612.613281 186.734375 C 612.613281 210.953125 632.460938 230.761719 656.703125 230.761719 L 656.703125 518.875 C 632.449219 518.875 612.613281 538.695312 612.613281 562.90625 L 137.660156 562.90625 C 137.660156 538.683594 117.8125 518.875 93.570312 518.875 L 93.570312 230.761719 C 117.828125 230.761719 137.660156 210.941406 137.660156 186.734375 Z M 137.660156 186.734375 " fill-opacity="1" fill-rule="evenodd"/><path fill="#b03939" d="M 375.132812 383.933594 L 389.589844 390.710938 L 404.207031 389.355469 L 415.226562 400.894531 L 429.351562 404.910156 L 435.449219 419.640625 L 447.179688 428.464844 L 447.539062 444.417969 L 455.273438 456.875 L 449.828125 471.882812 L 452.542969 486.28125 L 442.039062 498.3125 L 439.351562 512.722656 L 425.226562 520.152344 L 417.503906 532.621094 L 401.636719 534.441406 L 389.921875 543.285156 L 374.464844 539.269531 L 360.339844 543.285156 L 347.386719 533.964844 L 332.769531 532.621094 L 324.050781 519.25 L 310.910156 512.722656 L 307.625 497.113281 L 297.730469 486.28125 L 300.316406 470.539062 L 295.003906 456.875 L 303.097656 443.128906 L 303.097656 428.464844 L 315.625 418.574219 L 320.921875 404.910156 L 336.179688 400.191406 L 346.070312 389.355469 L 361.992188 390.472656 Z M 375.132812 383.933594 " fill-opacity="1" fill-rule="evenodd"/><path fill="#eb5353" d="M 375.132812 390.9375 C 415.320312 390.9375 447.898438 423.46875 447.898438 463.601562 C 447.898438 503.734375 415.320312 536.265625 375.132812 536.265625 C 334.941406 536.265625 302.363281 503.734375 302.363281 463.601562 C 302.363281 423.46875 334.941406 390.9375 375.132812 390.9375 Z M 375.132812 390.9375 " fill-opacity="1" fill-rule="evenodd"/><path fill="#b03939" d="M 375.132812 415.691406 L 378.101562 425.355469 L 387.777344 425.34375 L 379.9375 431.296875 L 382.945312 440.949219 L 375.132812 434.953125 L 367.316406 440.949219 L 370.324219 431.296875 L 362.496094 425.34375 L 372.164062 425.355469 Z M 375.132812 415.691406 " fill-opacity="1" fill-rule="evenodd"/><path fill="#b03939" d="M 375.132812 397.011719 C 393.542969 397.011719 410.222656 404.472656 422.285156 416.515625 C 434.359375 428.574219 441.8125 445.214844 441.8125 463.601562 C 441.8125 481.984375 434.34375 498.644531 422.285156 510.6875 C 410.210938 522.746094 393.542969 530.1875 375.132812 530.1875 C 356.71875 530.1875 340.039062 522.730469 327.976562 510.6875 C 315.917969 498.628906 308.449219 481.984375 308.449219 463.601562 C 308.449219 445.214844 315.917969 428.558594 327.976562 416.515625 C 340.050781 404.457031 356.71875 397.011719 375.132812 397.011719 Z M 419.835938 418.972656 C 408.398438 407.554688 392.597656 400.484375 375.132812 400.484375 C 357.664062 400.484375 341.875 407.554688 330.425781 418.972656 C 318.992188 430.394531 311.910156 446.171875 311.910156 463.613281 C 311.910156 481.054688 318.980469 496.820312 330.425781 508.253906 C 341.863281 519.671875 357.664062 526.746094 375.132812 526.746094 C 392.597656 526.746094 408.386719 519.6875 419.835938 508.253906 C 431.269531 496.835938 438.351562 481.054688 438.351562 463.613281 C 438.351562 446.171875 431.269531 430.40625 419.835938 418.972656 Z M 419.835938 418.972656 " fill-opacity="1" fill-rule="nonzero"/><path fill="#b03939" d="M 320.988281 445.707031 L 429.285156 445.707031 L 429.285156 448.59375 L 320.988281 448.59375 Z M 320.988281 445.707031 " fill-opacity="1" fill-rule="evenodd"/><path fill="#b03939" d="M 320.988281 478.621094 L 429.285156 478.621094 L 429.285156 481.507812 L 320.988281 481.507812 Z M 320.988281 478.621094 " fill-opacity="1" fill-rule="evenodd"/><path fill="#b03939" d="M 349.851562 423.175781 L 348.640625 427.109375 L 344.710938 427.109375 L 347.894531 429.53125 L 346.667969 433.464844 L 349.851562 431.019531 L 353.03125 433.464844 L 351.808594 429.53125 L 355.003906 427.109375 L 351.0625 427.109375 Z M 349.851562 423.175781 " fill-opacity="1" fill-rule="evenodd"/><path fill="#b03939" d="M 400.410156 423.175781 L 399.214844 427.109375 L 395.273438 427.109375 L 398.453125 429.53125 L 397.242188 433.464844 L 400.410156 431.019531 L 403.59375 433.464844 L 402.367188 429.53125 L 405.5625 427.109375 L 401.625 427.109375 Z M 400.410156 423.175781 " fill-opacity="1" fill-rule="evenodd"/><path fill="#b03939" d="M 375.132812 512.269531 C 371.46875 512.269531 368.515625 509.304688 368.515625 505.664062 C 368.515625 502.019531 371.484375 499.054688 375.132812 499.054688 C 378.777344 499.054688 381.746094 502.019531 381.746094 505.664062 C 381.746094 509.304688 378.792969 512.269531 375.132812 512.269531 Z M 375.132812 512.269531 " fill-opacity="1" fill-rule="evenodd"/><path fill="#b03939" d="M 349.851562 499.253906 C 350.890625 499.253906 351.742188 498.402344 351.742188 497.367188 C 351.742188 496.332031 350.890625 495.480469 349.851562 495.480469 C 348.8125 495.480469 347.960938 496.332031 347.960938 497.367188 C 347.960938 498.402344 348.8125 499.253906 349.851562 499.253906 Z M 349.851562 499.253906 " fill-opacity="1" fill-rule="evenodd"/><path fill="#b03939" d="M 400.410156 499.253906 C 401.449219 499.253906 402.300781 498.402344 402.300781 497.367188 C 402.300781 496.332031 401.449219 495.480469 400.410156 495.480469 C 399.375 495.480469 398.519531 496.332031 398.519531 497.367188 C 398.519531 498.402344 399.375 499.253906 400.410156 499.253906 Z M 400.410156 499.253906 " fill-opacity="1" fill-rule="evenodd"/><path fill="#b03939" d="M 360.128906 506.738281 C 362.257812 506.738281 363.976562 505.023438 363.976562 502.898438 C 363.976562 500.769531 362.257812 499.054688 360.128906 499.054688 C 357.996094 499.054688 356.28125 500.769531 356.28125 502.898438 C 356.28125 505.023438 357.996094 506.738281 360.128906 506.738281 Z M 360.128906 506.738281 " fill-opacity="1" fill-rule="evenodd"/><path fill="#b03939" d="M 390.132812 506.738281 C 392.265625 506.738281 393.980469 505.023438 393.980469 502.898438 C 393.980469 500.769531 392.265625 499.054688 390.132812 499.054688 C 388.003906 499.054688 386.285156 500.769531 386.285156 502.898438 C 386.285156 505.023438 388.019531 506.738281 390.132812 506.738281 Z M 390.132812 506.738281 " fill-opacity="1" fill-rule="evenodd"/><path fill="#b03939" d="M 326.328125 471.683594 L 320.988281 455.53125 L 326.78125 455.53125 L 331.09375 469.171875 L 328.179688 469.171875 L 332.757812 455.53125 L 337.9375 455.53125 L 342.210938 469.171875 L 339.414062 469.171875 L 343.925781 455.53125 L 349.265625 455.53125 L 343.925781 471.683594 L 337.894531 471.683594 L 334.40625 460.515625 L 336.03125 460.515625 L 332.359375 471.683594 Z M 350.515625 471.683594 L 350.515625 455.53125 L 356.148438 455.53125 L 356.148438 471.683594 Z M 358.863281 471.683594 L 358.863281 455.53125 L 363.496094 455.53125 L 371.988281 465.355469 L 369.847656 465.355469 L 369.847656 455.53125 L 375.332031 455.53125 L 375.332031 471.683594 L 370.699219 471.683594 L 362.203125 461.859375 L 364.347656 461.859375 L 364.347656 471.683594 Z M 378.046875 471.683594 L 378.046875 455.53125 L 382.679688 455.53125 L 391.171875 465.355469 L 389.03125 465.355469 L 389.03125 455.53125 L 394.515625 455.53125 L 394.515625 471.683594 L 389.882812 471.683594 L 381.386719 461.859375 L 383.53125 461.859375 L 383.53125 471.683594 Z M 402.382812 461.527344 L 409.824219 461.527344 L 409.824219 465.449219 L 402.382812 465.449219 Z M 402.769531 467.574219 L 411.113281 467.574219 L 411.113281 471.683594 L 397.230469 471.683594 L 397.230469 455.53125 L 410.808594 455.53125 L 410.808594 459.640625 L 402.769531 459.640625 Z M 413.285156 471.683594 L 413.285156 455.53125 L 421.324219 455.53125 C 422.882812 455.53125 424.226562 455.785156 425.371094 456.277344 C 426.503906 456.769531 427.382812 457.472656 428.007812 458.390625 C 428.632812 459.308594 428.941406 460.382812 428.941406 461.632812 C 428.941406 462.882812 428.632812 463.945312 428.007812 464.851562 C 427.382812 465.753906 426.503906 466.433594 425.371094 466.910156 C 424.242188 467.390625 422.882812 467.628906 421.324219 467.628906 L 416.414062 467.628906 L 418.917969 465.394531 L 418.917969 471.695312 L 413.285156 471.695312 Z M 423.28125 471.683594 L 419.183594 465.792969 L 425.144531 465.792969 L 429.300781 471.683594 Z M 418.917969 465.980469 L 416.414062 463.507812 L 420.964844 463.507812 C 421.738281 463.507812 422.324219 463.335938 422.695312 463.003906 C 423.070312 462.671875 423.257812 462.207031 423.257812 461.621094 C 423.257812 461.035156 423.070312 460.570312 422.695312 460.238281 C 422.324219 459.90625 421.75 459.734375 420.964844 459.734375 L 416.414062 459.734375 L 418.917969 457.261719 Z M 418.917969 465.980469 " fill-opacity="1" fill-rule="nonzero"/><path fill="#c2a813" d="M 181.394531 259.957031 L 568.882812 259.957031 C 581.195312 259.957031 591.273438 270.019531 591.273438 282.316406 C 591.273438 294.613281 581.195312 304.675781 568.882812 304.675781 L 181.394531 304.675781 C 169.078125 304.675781 159.003906 294.613281 159.003906 282.316406 C 159.003906 270.019531 169.078125 259.957031 181.394531 259.957031 Z M 181.394531 259.957031 " fill-opacity="1" fill-rule="evenodd"/><path fill="#c2a813" d="M 166.710938 337.445312 L 583.550781 337.445312 C 587.800781 337.445312 591.273438 340.914062 591.273438 345.15625 C 591.273438 349.394531 587.800781 352.863281 583.550781 352.863281 L 166.710938 352.863281 C 162.464844 352.863281 158.988281 349.394531 158.988281 345.15625 C 158.988281 340.914062 162.464844 337.445312 166.710938 337.445312 Z M 166.710938 337.445312 " fill-opacity="1" fill-rule="evenodd"/></svg>